<svg width="1600" height="900" viewBox="0 0 1600 900" fill="none" xmlns="http://www.w3.org/2000/svg">
  <rect width="1600" height="900" fill="#F2F6FF"/>
  <rect width="1600" height="900" fill="url(#bg)"/>
  <circle cx="1256" cy="194" r="232" fill="url(#orb1)"/>
  <circle cx="1388" cy="628" r="290" fill="url(#orb2)"/>
  <path d="M856 240C972 150 1136 140 1300 180" stroke="#D1D9FF" stroke-width="2"/>
  <path d="M876 370C1030 282 1176 296 1322 360" stroke="#D1D9FF" stroke-width="2"/>
  <path d="M900 524C1062 430 1202 440 1338 500" stroke="#D1D9FF" stroke-width="2"/>
  <path d="M932 694C1076 618 1208 618 1328 656" stroke="#D1D9FF" stroke-width="2"/>
  <rect x="924" y="176" width="120" height="120" rx="60" fill="#FFFFFF" fill-opacity="0.54"/>
  <rect x="1098" y="210" width="188" height="92" rx="24" fill="#FFFFFF" fill-opacity="0.46"/>
  <rect x="980" y="356" width="316" height="168" rx="28" fill="#FFFFFF" fill-opacity="0.4"/>
  <rect x="900" y="570" width="356" height="110" rx="26" fill="#FFFFFF" fill-opacity="0.48"/>
  <defs>
    <linearGradient id="bg" x1="258" y1="94" x2="1362" y2="818" gradientUnits="userSpaceOnUse">
      <stop stop-color="#FBFCFF"/>
      <stop offset="1" stop-color="#E8EEFF"/>
    </linearGradient>
    <radialGradient id="orb1" cx="0" cy="0" r="1" gradientUnits="userSpaceOnUse" gradientTransform="translate(1256 194) rotate(90) scale(232)">
      <stop stop-color="#6874FF" stop-opacity="0.76"/>
      <stop offset="1" stop-color="#6874FF" stop-opacity="0"/>
    </radialGradient>
    <radialGradient id="orb2" cx="0" cy="0" r="1" gradientUnits="userSpaceOnUse" gradientTransform="translate(1388 628) rotate(90) scale(290)">
      <stop stop-color="#A9B7FF" stop-opacity="0.82"/>
      <stop offset="1" stop-color="#A9B7FF" stop-opacity="0"/>
    </radialGradient>
  </defs>
</svg>
