<svg width="1600" height="900" viewBox="0 0 1600 900" fill="none" xmlns="http://www.w3.org/2000/svg">
  <rect width="1600" height="900" fill="url(#bgGrad)"/>
  <!-- Subtle dot grid on right half -->
  <path d="M840 60v780M920 60v780M1000 60v780M1080 60v780M1160 60v780M1240 60v780M1320 60v780M1400 60v780M1480 60v780M1560 60v780" stroke="#C7D2FE" stroke-opacity="0.18" stroke-width="1"/>
  <path d="M800 100h800M800 180h800M800 260h800M800 340h800M800 420h800M800 500h800M800 580h800M800 660h800M800 740h800M800 820h800" stroke="#C7D2FE" stroke-opacity="0.15" stroke-width="1"/>
  <!-- Main glow orbs -->
  <circle cx="1320" cy="140" r="340" fill="url(#orb1)"/>
  <circle cx="1460" cy="780" r="300" fill="url(#orb2)"/>
  <circle cx="980" cy="480" r="220" fill="url(#orb3)"/>
  <!-- Dashboard card - main -->
  <rect x="870" y="110" width="420" height="280" rx="22" fill="white" fill-opacity="0.78" stroke="#DDE6FF" stroke-width="1.5"/>
  <!-- Card header bar -->
  <rect x="870" y="110" width="420" height="46" rx="22" fill="#F0F4FF" fill-opacity="0.95"/>
  <rect x="870" y="134" width="420" height="22" fill="#F0F4FF" fill-opacity="0.95"/>
  <circle cx="898" cy="133" r="7" fill="#FCA5A5"/>
  <circle cx="920" cy="133" r="7" fill="#FCD34D"/>
  <circle cx="942" cy="133" r="7" fill="#6EE7B7"/>
  <!-- Card content rows -->
  <rect x="894" y="174" width="120" height="9" rx="4" fill="#6366F1" fill-opacity="0.7"/>
  <rect x="894" y="192" width="200" height="7" rx="3" fill="#CBD5E1"/>
  <rect x="894" y="207" width="160" height="7" rx="3" fill="#E2E8F0"/>
  <!-- Mini stat cards inside -->
  <rect x="894" y="232" width="100" height="72" rx="12" fill="url(#statCard1)"/>
  <rect x="1006" y="232" width="100" height="72" rx="12" fill="url(#statCard2)"/>
  <rect x="1118" y="232" width="100" height="72" rx="12" fill="url(#statCard3)"/>
  <rect x="1230" y="232" width="44" height="72" rx="12" fill="#F1F5F9" fill-opacity="0.8"/>
  <rect x="904" y="248" width="32" height="7" rx="3" fill="white" fill-opacity="0.9"/>
  <rect x="904" y="262" width="48" height="11" rx="4" fill="white" fill-opacity="0.8"/>
  <rect x="904" y="280" width="36" height="6" rx="3" fill="white" fill-opacity="0.6"/>
  <rect x="1016" y="248" width="32" height="7" rx="3" fill="white" fill-opacity="0.9"/>
  <rect x="1016" y="262" width="48" height="11" rx="4" fill="white" fill-opacity="0.8"/>
  <rect x="1016" y="280" width="36" height="6" rx="3" fill="white" fill-opacity="0.6"/>
  <rect x="1128" y="248" width="32" height="7" rx="3" fill="white" fill-opacity="0.9"/>
  <rect x="1128" y="262" width="48" height="11" rx="4" fill="white" fill-opacity="0.8"/>
  <rect x="1128" y="280" width="36" height="6" rx="3" fill="white" fill-opacity="0.6"/>
  <rect x="894" y="322" width="280" height="7" rx="3" fill="#E2E8F0"/>
  <rect x="894" y="338" width="200" height="7" rx="3" fill="#EEF2FF"/>
  <!-- Secondary floating card -->
  <rect x="1130" y="428" width="300" height="180" rx="18" fill="white" fill-opacity="0.72" stroke="#E0E8FF" stroke-width="1.5"/>
  <rect x="1154" y="452" width="80" height="8" rx="4" fill="#6366F1" fill-opacity="0.6"/>
  <rect x="1154" y="468" width="120" height="7" rx="3" fill="#CBD5E1"/>
  <rect x="1154" y="484" width="88" height="7" rx="3" fill="#E2E8F0"/>
  <!-- Inline bar chart -->
  <rect x="1154" y="508" width="24" height="56" rx="6" fill="url(#bar1)"/>
  <rect x="1186" y="528" width="24" height="36" rx="6" fill="url(#bar2)"/>
  <rect x="1218" y="516" width="24" height="48" rx="6" fill="url(#bar3)"/>
  <rect x="1250" y="496" width="24" height="68" rx="6" fill="url(#bar4)"/>
  <rect x="1282" y="508" width="24" height="56" rx="6" fill="url(#bar5)"/>
  <rect x="1314" y="520" width="24" height="44" rx="6" fill="url(#bar2)"/>
  <rect x="1346" y="502" width="24" height="62" rx="6" fill="url(#bar1)"/>
  <!-- Small tag card -->
  <rect x="870" y="432" width="220" height="80" rx="14" fill="white" fill-opacity="0.82" stroke="#E8EEFF" stroke-width="1"/>
  <rect x="890" y="452" width="32" height="32" rx="8" fill="url(#tagIcon)"/>
  <rect x="932" y="456" width="96" height="8" rx="4" fill="#4F46E5" fill-opacity="0.8"/>
  <rect x="932" y="470" width="128" height="6" rx="3" fill="#CBD5E1"/>
  <rect x="932" y="482" width="100" height="6" rx="3" fill="#E2E8F0"/>
  <!-- Small notification chip -->
  <rect x="870" y="548" width="180" height="44" rx="22" fill="url(#chipGrad)" fill-opacity="0.9"/>
  <circle cx="896" cy="570" r="10" fill="white" fill-opacity="0.3"/>
  <rect x="914" y="564" width="80" height="7" rx="3" fill="white" fill-opacity="0.9"/>
  <rect x="914" y="576" width="60" height="6" rx="3" fill="white" fill-opacity="0.6"/>
  <!-- Decorative dots -->
  <circle cx="1080" cy="370" r="4" fill="#818CF8" fill-opacity="0.5"/>
  <circle cx="1096" cy="358" r="2.5" fill="#A5B4FC" fill-opacity="0.4"/>
  <circle cx="1066" cy="382" r="2.5" fill="#C7D2FE" fill-opacity="0.4"/>
  <circle cx="1108" cy="376" r="2" fill="#6366F1" fill-opacity="0.3"/>
  <!-- Connecting arc -->
  <path d="M1090 400 Q1110 415 1130 430" stroke="url(#arcLine)" stroke-width="1.5" fill="none" stroke-opacity="0.4"/>
  <defs>
    <linearGradient id="bgGrad" x1="0" y1="0" x2="1600" y2="900" gradientUnits="userSpaceOnUse">
      <stop stop-color="#F2F6FF"/>
      <stop offset="0.55" stop-color="#EBF1FF"/>
      <stop offset="1" stop-color="#E4EDFF"/>
    </linearGradient>
    <radialGradient id="orb1" cx="0" cy="0" r="1" gradientUnits="userSpaceOnUse" gradientTransform="translate(1320 140) rotate(90) scale(340)">
      <stop stop-color="#6366F1" stop-opacity="0.38"/>
      <stop offset="1" stop-color="#6366F1" stop-opacity="0"/>
    </radialGradient>
    <radialGradient id="orb2" cx="0" cy="0" r="1" gradientUnits="userSpaceOnUse" gradientTransform="translate(1460 780) rotate(90) scale(300)">
      <stop stop-color="#A5B4FC" stop-opacity="0.35"/>
      <stop offset="1" stop-color="#A5B4FC" stop-opacity="0"/>
    </radialGradient>
    <radialGradient id="orb3" cx="0" cy="0" r="1" gradientUnits="userSpaceOnUse" gradientTransform="translate(980 480) rotate(90) scale(220)">
      <stop stop-color="#E0E7FF" stop-opacity="0.5"/>
      <stop offset="1" stop-color="#E0E7FF" stop-opacity="0"/>
    </radialGradient>
    <linearGradient id="statCard1" x1="894" y1="232" x2="994" y2="304" gradientUnits="userSpaceOnUse">
      <stop stop-color="#4F46E5"/>
      <stop offset="1" stop-color="#6366F1"/>
    </linearGradient>
    <linearGradient id="statCard2" x1="1006" y1="232" x2="1106" y2="304" gradientUnits="userSpaceOnUse">
      <stop stop-color="#7C3AED"/>
      <stop offset="1" stop-color="#8B5CF6"/>
    </linearGradient>
    <linearGradient id="statCard3" x1="1118" y1="232" x2="1218" y2="304" gradientUnits="userSpaceOnUse">
      <stop stop-color="#2563EB"/>
      <stop offset="1" stop-color="#3B82F6"/>
    </linearGradient>
    <linearGradient id="bar1" x1="0" y1="0" x2="0" y2="1" gradientUnits="objectBoundingBox">
      <stop stop-color="#6366F1"/>
      <stop offset="1" stop-color="#818CF8"/>
    </linearGradient>
    <linearGradient id="bar2" x1="0" y1="0" x2="0" y2="1" gradientUnits="objectBoundingBox">
      <stop stop-color="#A5B4FC"/>
      <stop offset="1" stop-color="#C7D2FE"/>
    </linearGradient>
    <linearGradient id="bar3" x1="0" y1="0" x2="0" y2="1" gradientUnits="objectBoundingBox">
      <stop stop-color="#818CF8"/>
      <stop offset="1" stop-color="#A5B4FC"/>
    </linearGradient>
    <linearGradient id="bar4" x1="0" y1="0" x2="0" y2="1" gradientUnits="objectBoundingBox">
      <stop stop-color="#4F46E5"/>
      <stop offset="1" stop-color="#6366F1"/>
    </linearGradient>
    <linearGradient id="bar5" x1="0" y1="0" x2="0" y2="1" gradientUnits="objectBoundingBox">
      <stop stop-color="#7C3AED"/>
      <stop offset="1" stop-color="#8B5CF6"/>
    </linearGradient>
    <linearGradient id="tagIcon" x1="890" y1="452" x2="922" y2="484" gradientUnits="userSpaceOnUse">
      <stop stop-color="#818CF8"/>
      <stop offset="1" stop-color="#4F46E5"/>
    </linearGradient>
    <linearGradient id="chipGrad" x1="870" y1="548" x2="1050" y2="592" gradientUnits="userSpaceOnUse">
      <stop stop-color="#4F46E5"/>
      <stop offset="1" stop-color="#6366F1"/>
    </linearGradient>
    <linearGradient id="arcLine" x1="1090" y1="400" x2="1130" y2="430" gradientUnits="userSpaceOnUse">
      <stop stop-color="#6366F1"/>
      <stop offset="1" stop-color="#A5B4FC"/>
    </linearGradient>
  </defs>
</svg>
