<svg width="1600" height="900" viewBox="0 0 1600 900" fill="none" xmlns="http://www.w3.org/2000/svg">
  <rect width="1600" height="900" fill="#EEF3FF"/>
  <rect width="1600" height="900" fill="url(#bg)"/>
  <circle cx="1260" cy="168" r="260" fill="url(#orb1)" fill-opacity="0.9"/>
  <circle cx="1380" cy="688" r="300" fill="url(#orb2)" fill-opacity="0.85"/>
  <circle cx="1110" cy="454" r="180" fill="#FFFFFF" fill-opacity="0.48"/>
  <path d="M820 132C1040 170 1218 278 1360 464" stroke="#FFFFFF" stroke-opacity="0.75" stroke-width="2"/>
  <path d="M760 240C1028 282 1210 420 1348 666" stroke="#C7D2FE" stroke-width="2"/>
  <path d="M904 110C1052 246 1122 402 1158 630" stroke="#94A3FF" stroke-opacity="0.55" stroke-width="2"/>
  <rect x="918" y="198" width="332" height="190" rx="26" fill="#FFFFFF" fill-opacity="0.52"/>
  <rect x="1098" y="438" width="264" height="152" rx="26" fill="#FFFFFF" fill-opacity="0.44"/>
  <rect x="860" y="594" width="380" height="142" rx="26" fill="#FFFFFF" fill-opacity="0.3"/>
  <defs>
    <linearGradient id="bg" x1="160" y1="120" x2="1388" y2="814" gradientUnits="userSpaceOnUse">
      <stop stop-color="#F8FBFF"/>
      <stop offset="0.58" stop-color="#EAF0FF"/>
      <stop offset="1" stop-color="#DFE8FF"/>
    </linearGradient>
    <radialGradient id="orb1" cx="0" cy="0" r="1" gradientUnits="userSpaceOnUse" gradientTransform="translate(1260 168) rotate(90) scale(260)">
      <stop stop-color="#6C72FF"/>
      <stop offset="1" stop-color="#6C72FF" stop-opacity="0"/>
    </radialGradient>
    <radialGradient id="orb2" cx="0" cy="0" r="1" gradientUnits="userSpaceOnUse" gradientTransform="translate(1380 688) rotate(90) scale(300)">
      <stop stop-color="#A7B8FF"/>
      <stop offset="1" stop-color="#A7B8FF" stop-opacity="0"/>
    </radialGradient>
  </defs>
</svg>
