<svg width="1600" height="900" viewBox="0 0 1600 900" fill="none" xmlns="http://www.w3.org/2000/svg">
  <rect width="1600" height="900" fill="url(#bgGrad)"/>
  <circle cx="1360" cy="130" r="320" fill="url(#orb1)"/>
  <circle cx="1440" cy="780" r="270" fill="url(#orb2)"/>
  <path d="M840 60v780M920 60v780M1000 60v780M1080 60v780M1160 60v780M1240 60v780M1320 60v780M1400 60v780M1480 60v780M1560 60v780" stroke="#C7D2FE" stroke-opacity="0.13" stroke-width="1"/>
  <path d="M800 100h800M800 200h800M800 300h800M800 400h800M800 500h800M800 600h800M800 700h800M800 800h800" stroke="#C7D2FE" stroke-opacity="0.11" stroke-width="1"/>
  <!-- Featured article card -->
  <rect x="862" y="108" width="458" height="282" rx="20" fill="white" fill-opacity="0.82" stroke="#DDE6FF" stroke-width="1.5"/>
  <rect x="862" y="108" width="458" height="138" rx="20" fill="url(#featImg)"/>
  <rect x="862" y="224" width="458" height="22" fill="url(#featImg)"/>
  <rect x="882" y="124" width="62" height="20" rx="10" fill="#4F46E5" fill-opacity="0.9"/>
  <rect x="890" y="130" width="46" height="8" rx="3" fill="white" fill-opacity="0.9"/>
  <rect x="882" y="264" width="300" height="11" rx="4" fill="#1E293B" fill-opacity="0.85"/>
  <rect x="882" y="282" width="240" height="9" rx="4" fill="#334155" fill-opacity="0.55"/>
  <circle cx="893" cy="320" r="8" fill="#E0E7FF"/>
  <rect x="908" y="315" width="60" height="7" rx="3" fill="#94A3B8"/>
  <rect x="978" y="315" width="80" height="7" rx="3" fill="#CBD5E1"/>
  <rect x="1252" y="311" width="56" height="20" rx="10" fill="url(#linkBtn)"/>
  <rect x="1260" y="318" width="40" height="6" rx="3" fill="white" fill-opacity="0.9"/>
  <!-- Secondary card 1 -->
  <rect x="862" y="414" width="222" height="182" rx="16" fill="white" fill-opacity="0.78" stroke="#E0E8FF" stroke-width="1.5"/>
  <rect x="862" y="414" width="222" height="80" rx="16" fill="url(#card2Img)"/>
  <rect x="862" y="470" width="222" height="24" fill="url(#card2Img)"/>
  <rect x="878" y="508" width="60" height="16" rx="8" fill="#EEF2FF"/>
  <rect x="884" y="513" width="48" height="6" rx="2" fill="#6366F1" fill-opacity="0.7"/>
  <rect x="878" y="532" width="160" height="8" rx="3" fill="#334155" fill-opacity="0.75"/>
  <rect x="878" y="548" width="120" height="7" rx="3" fill="#94A3B8"/>
  <rect x="878" y="562" width="90" height="7" rx="3" fill="#CBD5E1"/>
  <!-- Secondary card 2 -->
  <rect x="1098" y="414" width="222" height="182" rx="16" fill="white" fill-opacity="0.78" stroke="#E0E8FF" stroke-width="1.5"/>
  <rect x="1098" y="414" width="222" height="80" rx="16" fill="url(#card3Img)"/>
  <rect x="1098" y="470" width="222" height="24" fill="url(#card3Img)"/>
  <rect x="1114" y="508" width="60" height="16" rx="8" fill="#F0FDF4"/>
  <rect x="1120" y="513" width="48" height="6" rx="2" fill="#059669" fill-opacity="0.7"/>
  <rect x="1114" y="532" width="160" height="8" rx="3" fill="#334155" fill-opacity="0.75"/>
  <rect x="1114" y="548" width="120" height="7" rx="3" fill="#94A3B8"/>
  <rect x="1114" y="562" width="90" height="7" rx="3" fill="#CBD5E1"/>
  <!-- News list sidebar -->
  <rect x="1348" y="108" width="212" height="488" rx="18" fill="white" fill-opacity="0.72" stroke="#DDE6FF" stroke-width="1.5"/>
  <rect x="1366" y="126" width="80" height="8" rx="3" fill="#6366F1" fill-opacity="0.7"/>
  <rect x="1366" y="141" width="120" height="7" rx="3" fill="#CBD5E1"/>
  <rect x="1366" y="162" width="174" height="1" fill="#E2E8F0"/>
  <rect x="1366" y="173" width="48" height="36" rx="6" fill="url(#lt1)"/>
  <rect x="1422" y="175" width="110" height="7" rx="3" fill="#334155" fill-opacity="0.8"/>
  <rect x="1422" y="188" width="80" height="6" rx="3" fill="#CBD5E1"/>
  <rect x="1422" y="200" width="60" height="6" rx="3" fill="#E2E8F0"/>
  <rect x="1366" y="217" width="174" height="1" fill="#E2E8F0"/>
  <rect x="1366" y="228" width="48" height="36" rx="6" fill="url(#lt2)"/>
  <rect x="1422" y="230" width="110" height="7" rx="3" fill="#334155" fill-opacity="0.8"/>
  <rect x="1422" y="243" width="80" height="6" rx="3" fill="#CBD5E1"/>
  <rect x="1422" y="255" width="60" height="6" rx="3" fill="#E2E8F0"/>
  <rect x="1366" y="272" width="174" height="1" fill="#E2E8F0"/>
  <rect x="1366" y="283" width="48" height="36" rx="6" fill="url(#lt3)"/>
  <rect x="1422" y="285" width="110" height="7" rx="3" fill="#334155" fill-opacity="0.8"/>
  <rect x="1422" y="298" width="80" height="6" rx="3" fill="#CBD5E1"/>
  <rect x="1422" y="310" width="60" height="6" rx="3" fill="#E2E8F0"/>
  <rect x="1366" y="327" width="174" height="1" fill="#E2E8F0"/>
  <rect x="1366" y="338" width="48" height="36" rx="6" fill="url(#lt1)"/>
  <rect x="1422" y="340" width="110" height="7" rx="3" fill="#334155" fill-opacity="0.8"/>
  <rect x="1422" y="353" width="80" height="6" rx="3" fill="#CBD5E1"/>
  <rect x="1422" y="365" width="60" height="6" rx="3" fill="#E2E8F0"/>
  <rect x="1366" y="382" width="174" height="1" fill="#E2E8F0"/>
  <rect x="1366" y="393" width="48" height="36" rx="6" fill="url(#lt2)"/>
  <rect x="1422" y="395" width="110" height="7" rx="3" fill="#334155" fill-opacity="0.8"/>
  <rect x="1422" y="408" width="80" height="6" rx="3" fill="#CBD5E1"/>
  <rect x="1422" y="420" width="60" height="6" rx="3" fill="#E2E8F0"/>
  <rect x="1366" y="437" width="174" height="1" fill="#E2E8F0"/>
  <rect x="1366" y="448" width="48" height="36" rx="6" fill="url(#lt3)"/>
  <rect x="1422" y="450" width="110" height="7" rx="3" fill="#334155" fill-opacity="0.8"/>
  <rect x="1422" y="463" width="80" height="6" rx="3" fill="#CBD5E1"/>
  <rect x="1422" y="475" width="60" height="6" rx="3" fill="#E2E8F0"/>
  <rect x="1366" y="492" width="174" height="72" rx="12" fill="url(#viewAll)"/>
  <rect x="1396" y="519" width="114" height="8" rx="3" fill="white" fill-opacity="0.9"/>
  <rect x="1406" y="533" width="94" height="6" rx="3" fill="white" fill-opacity="0.6"/>
  <!-- Category tags strip -->
  <rect x="862" y="620" width="460" height="44" rx="22" fill="white" fill-opacity="0.75" stroke="#E0E8FF" stroke-width="1"/>
  <rect x="882" y="634" width="56" height="16" rx="8" fill="url(#tagA)"/>
  <rect x="888" y="639" width="44" height="6" rx="2" fill="white" fill-opacity="0.9"/>
  <rect x="948" y="634" width="56" height="16" rx="8" fill="#F1F5F9"/>
  <rect x="954" y="639" width="44" height="6" rx="2" fill="#64748B"/>
  <rect x="1014" y="634" width="56" height="16" rx="8" fill="#F1F5F9"/>
  <rect x="1020" y="639" width="44" height="6" rx="2" fill="#64748B"/>
  <rect x="1080" y="634" width="56" height="16" rx="8" fill="#F1F5F9"/>
  <rect x="1086" y="639" width="44" height="6" rx="2" fill="#64748B"/>
  <defs>
    <linearGradient id="bgGrad" x1="0" y1="0" x2="1600" y2="900" gradientUnits="userSpaceOnUse">
      <stop stop-color="#F2F6FF"/>
      <stop offset="1" stop-color="#E4EDFF"/>
    </linearGradient>
    <radialGradient id="orb1" cx="0" cy="0" r="1" gradientUnits="userSpaceOnUse" gradientTransform="translate(1360 130) rotate(90) scale(320)">
      <stop stop-color="#6366F1" stop-opacity="0.3"/>
      <stop offset="1" stop-color="#6366F1" stop-opacity="0"/>
    </radialGradient>
    <radialGradient id="orb2" cx="0" cy="0" r="1" gradientUnits="userSpaceOnUse" gradientTransform="translate(1440 780) rotate(90) scale(270)">
      <stop stop-color="#A5B4FC" stop-opacity="0.28"/>
      <stop offset="1" stop-color="#A5B4FC" stop-opacity="0"/>
    </radialGradient>
    <linearGradient id="featImg" x1="862" y1="108" x2="1320" y2="246" gradientUnits="userSpaceOnUse">
      <stop stop-color="#C7D2FE"/>
      <stop offset="1" stop-color="#DDE6FF"/>
    </linearGradient>
    <linearGradient id="card2Img" x1="862" y1="414" x2="1084" y2="494" gradientUnits="userSpaceOnUse">
      <stop stop-color="#A5B4FC"/>
      <stop offset="1" stop-color="#C7D2FE"/>
    </linearGradient>
    <linearGradient id="card3Img" x1="1098" y1="414" x2="1320" y2="494" gradientUnits="userSpaceOnUse">
      <stop stop-color="#6EE7B7"/>
      <stop offset="1" stop-color="#A7F3D0"/>
    </linearGradient>
    <linearGradient id="linkBtn" x1="1252" y1="311" x2="1308" y2="331" gradientUnits="userSpaceOnUse">
      <stop stop-color="#4F46E5"/>
      <stop offset="1" stop-color="#6366F1"/>
    </linearGradient>
    <linearGradient id="lt1" x1="1366" y1="173" x2="1414" y2="209" gradientUnits="userSpaceOnUse">
      <stop stop-color="#818CF8"/>
      <stop offset="1" stop-color="#C7D2FE"/>
    </linearGradient>
    <linearGradient id="lt2" x1="1366" y1="228" x2="1414" y2="264" gradientUnits="userSpaceOnUse">
      <stop stop-color="#34D399"/>
      <stop offset="1" stop-color="#A7F3D0"/>
    </linearGradient>
    <linearGradient id="lt3" x1="1366" y1="283" x2="1414" y2="319" gradientUnits="userSpaceOnUse">
      <stop stop-color="#FCA5A5"/>
      <stop offset="1" stop-color="#FECDD3"/>
    </linearGradient>
    <linearGradient id="viewAll" x1="1366" y1="492" x2="1540" y2="564" gradientUnits="userSpaceOnUse">
      <stop stop-color="#4F46E5"/>
      <stop offset="1" stop-color="#6366F1"/>
    </linearGradient>
    <linearGradient id="tagA" x1="882" y1="634" x2="938" y2="650" gradientUnits="userSpaceOnUse">
      <stop stop-color="#4F46E5"/>
      <stop offset="1" stop-color="#818CF8"/>
    </linearGradient>
  </defs>
</svg>
